<svg version="1.1" id="Layer_1" xmlns="http://www.w3.org/2000/svg" xmlns:xlink="http://www.w3.org/1999/xlink" x="0px" y="0px"
	 width="100%" viewBox="0 0 1200 1200" enable-background="new 0 0 1200 1200" xml:space="preserve">
<path fill="#000000" opacity="1.000000" stroke="none" 
	d="
M697.000000,1201.000000 
	C464.666656,1201.000000 232.833328,1201.000000 1.000000,1201.000000 
	C1.000000,801.000000 1.000000,401.000000 1.000000,1.000000 
	C401.000000,1.000000 801.000000,1.000000 1201.000000,1.000000 
	C1201.000000,401.000000 1201.000000,801.000000 1201.000000,1201.000000 
	C1033.166626,1201.000000 865.333313,1201.000000 697.000000,1201.000000 
M614.507202,212.993240 
	C578.825195,233.109085 548.274719,259.193726 523.238037,291.789093 
	C522.765503,291.215332 522.356873,290.880585 522.153564,290.449127 
	C511.355560,267.537140 498.174866,246.017227 484.012878,225.067810 
	C481.225739,220.944885 477.684326,218.033447 472.463684,218.014420 
	C459.131287,217.965836 445.792572,217.786087 432.470764,218.164673 
	C429.561157,218.247360 426.299591,219.915237 423.928589,221.779541 
	C420.157593,224.744629 416.877228,228.377472 413.625702,231.943375 
	C411.584167,234.182266 409.475922,235.139542 406.342407,235.084763 
	C394.180145,234.872162 382.011963,235.014999 369.846008,234.991440 
	C363.356049,234.978867 356.165405,236.621902 350.576904,234.351929 
	C345.178680,232.159241 341.432220,225.900284 336.958984,221.428680 
	C336.841431,221.311157 336.728638,221.164505 336.583344,221.102676 
	C334.135559,220.061142 331.701233,218.191666 329.228394,218.137878 
	C315.735565,217.844391 302.223358,217.726852 288.741150,218.206253 
	C285.712646,218.313950 281.591003,220.264374 279.990082,222.695190 
	C268.841125,239.623596 257.548767,256.522125 247.615707,274.169495 
	C236.502319,293.913879 227.865494,314.886932 222.509094,337.023132 
	C218.580215,353.259766 215.565521,369.665649 220.073502,386.273376 
	C222.721924,396.030426 227.385101,404.992615 236.726776,409.830353 
	C251.375824,417.416656 266.252747,415.500580 279.860626,407.405090 
	C296.663910,397.408569 308.626343,382.500519 318.174408,365.575592 
	C318.857269,364.365143 320.748688,363.134491 322.099640,363.110229 
	C337.652130,362.831573 347.427246,354.805878 353.159546,340.829529 
	C353.691620,339.532379 355.902710,338.141357 357.351105,338.122894 
	C372.681061,337.927521 388.015015,338.067749 403.346436,337.941010 
	C406.101410,337.918243 407.309631,338.777527 408.063690,341.457397 
	C411.151764,352.431671 426.896667,364.603607 437.617218,363.099701 
	C438.961517,362.911072 441.078278,363.637878 441.818634,364.670715 
	C443.468384,366.972015 444.387482,369.782135 445.756775,372.302094 
	C451.252502,382.416260 458.053680,391.638000 466.860046,399.003418 
	C470.073090,401.690704 470.314911,403.794586 469.399628,407.230011 
	C464.136658,426.983734 461.937256,447.195343 461.074921,467.544250 
	C460.636475,477.890747 460.998230,488.271118 460.998230,498.998230 
	C459.775238,498.998230 457.981445,498.998230 456.187683,498.998230 
	C366.026154,498.998230 275.864624,498.998169 185.703110,498.998291 
	C178.224686,498.998322 175.998428,501.180511 175.998413,508.514404 
	C175.998154,677.838074 175.998154,847.161804 175.998398,1016.485474 
	C175.998413,1023.819519 178.224472,1026.001465 185.703033,1026.001465 
	C383.191772,1026.001587 580.680481,1026.001587 778.169250,1026.001465 
	C779.169189,1026.001465 780.169800,1025.977295 781.168945,1026.005981 
	C784.774414,1026.109375 787.063293,1024.292847 787.934265,1020.936096 
	C788.538391,1018.607666 788.955872,1016.155029 788.958618,1013.757385 
	C789.015625,963.093689 789.001709,912.429871 789.001709,861.766113 
	C789.001709,859.976624 789.001709,858.187134 789.001709,856.001709 
	C791.173462,856.001709 792.961487,856.001709 794.749573,856.001709 
	C842.746826,856.001709 890.744202,855.958252 938.741211,856.064331 
	C943.940491,856.075806 947.759216,854.576477 950.052002,849.717102 
	C951.826355,845.956177 954.689087,844.729065 959.050598,844.866882 
	C971.287598,845.253662 983.544739,845.001709 996.592590,845.001709 
	C988.513184,833.128113 981.027344,821.913940 973.276672,810.885925 
	C971.340393,808.130981 970.520691,806.044189 971.684814,802.463135 
	C979.459290,778.547913 984.432983,754.080017 983.924805,728.796143 
	C983.733582,719.286682 983.245483,709.707581 981.824036,700.322144 
	C980.673950,692.728760 981.959656,686.495544 986.796509,680.579773 
	C990.316467,676.274719 993.194641,671.444885 997.099304,665.773682 
	C992.886475,665.773682 989.940857,665.773682 986.915100,665.773682 
	C993.584961,656.612671 1000.371277,648.295654 1006.025024,639.269226 
	C1012.908936,628.278748 1019.147461,616.848145 1025.043213,605.290771 
	C1027.690796,600.100708 1025.843750,596.831421 1020.610107,594.218994 
	C979.702209,573.799194 938.774780,553.418274 897.876221,532.979797 
	C858.311768,513.208008 818.774475,493.381958 779.136475,473.535278 
	C780.135071,472.969269 780.954712,472.454346 781.816406,472.023468 
	C861.161011,432.349365 940.470703,392.604889 1019.933960,353.169800 
	C1025.837646,350.240051 1027.483032,344.092072 1024.632568,339.093964 
	C1021.130005,332.952209 1017.755798,326.736237 1014.189819,320.631897 
	C1004.357605,303.800690 993.287476,287.769409 979.882812,273.642822 
	C969.290771,262.480225 957.769226,252.165009 946.289062,241.888382 
	C931.403809,228.563812 914.417603,218.243210 896.784363,209.006683 
	C878.393738,199.373413 859.051392,192.232605 839.102722,186.419250 
	C819.683838,180.760284 799.851074,177.245560 779.854187,176.332672 
	C760.590637,175.453293 741.071838,176.182068 721.905945,178.341339 
	C705.023071,180.243423 688.326843,184.532166 671.813049,188.793518 
	C651.834412,193.948944 633.388428,203.173737 614.507202,212.993240 
z"/>
<path fill="#FEFEFE" opacity="1.000000" stroke="none" 
	d="
M614.773193,212.721313 
	C633.388428,203.173737 651.834412,193.948944 671.813049,188.793518 
	C688.326843,184.532166 705.023071,180.243423 721.905945,178.341339 
	C741.071838,176.182068 760.590637,175.453293 779.854187,176.332672 
	C799.851074,177.245560 819.683838,180.760284 839.102722,186.419250 
	C859.051392,192.232605 878.393738,199.373413 896.784363,209.006683 
	C914.417603,218.243210 931.403809,228.563812 946.289062,241.888382 
	C957.769226,252.165009 969.290771,262.480225 979.882812,273.642822 
	C993.287476,287.769409 1004.357605,303.800690 1014.189819,320.631897 
	C1017.755798,326.736237 1021.130005,332.952209 1024.632568,339.093964 
	C1027.483032,344.092072 1025.837646,350.240051 1019.933960,353.169800 
	C940.470703,392.604889 861.161011,432.349365 781.816406,472.023468 
	C780.954712,472.454346 780.135071,472.969269 779.136475,473.535278 
	C818.774475,493.381958 858.311768,513.208008 897.876221,532.979797 
	C938.774780,553.418274 979.702209,573.799194 1020.610107,594.218994 
	C1025.843750,596.831421 1027.690796,600.100708 1025.043213,605.290771 
	C1019.147461,616.848145 1012.908936,628.278748 1006.025024,639.269226 
	C1000.371277,648.295654 993.584961,656.612671 986.915100,665.773682 
	C989.940857,665.773682 992.886475,665.773682 997.099304,665.773682 
	C993.194641,671.444885 990.316467,676.274719 986.796509,680.579773 
	C981.959656,686.495544 980.673950,692.728760 981.824036,700.322144 
	C983.245483,709.707581 983.733582,719.286682 983.924805,728.796143 
	C984.432983,754.080017 979.459290,778.547913 971.684814,802.463135 
	C970.520691,806.044189 971.340393,808.130981 973.276672,810.885925 
	C981.027344,821.913940 988.513184,833.128113 996.592590,845.001709 
	C983.544739,845.001709 971.287598,845.253662 959.050598,844.866882 
	C954.689087,844.729065 951.826355,845.956177 950.052002,849.717102 
	C947.759216,854.576477 943.940491,856.075806 938.741211,856.064331 
	C890.744202,855.958252 842.746826,856.001709 794.749573,856.001709 
	C792.961487,856.001709 791.173462,856.001709 789.001709,856.001709 
	C789.001709,858.187134 789.001709,859.976624 789.001709,861.766113 
	C789.001709,912.429871 789.015625,963.093689 788.958618,1013.757385 
	C788.955872,1016.155029 788.538391,1018.607666 787.934265,1020.936096 
	C787.063293,1024.292847 784.774414,1026.109375 781.168945,1026.005981 
	C780.169800,1025.977295 779.169189,1026.001465 778.169250,1026.001465 
	C580.680481,1026.001587 383.191772,1026.001587 185.703033,1026.001465 
	C178.224472,1026.001465 175.998413,1023.819519 175.998398,1016.485474 
	C175.998154,847.161804 175.998154,677.838074 175.998413,508.514404 
	C175.998428,501.180511 178.224686,498.998322 185.703110,498.998291 
	C275.864624,498.998169 366.026154,498.998230 456.187683,498.998230 
	C457.981445,498.998230 459.775238,498.998230 460.998230,498.998230 
	C460.998230,488.271118 460.636475,477.890747 461.074921,467.544250 
	C461.937256,447.195343 464.136658,426.983734 469.399628,407.230011 
	C470.314911,403.794586 470.073090,401.690704 466.860046,399.003418 
	C458.053680,391.638000 451.252502,382.416260 445.756775,372.302094 
	C444.387482,369.782135 443.468384,366.972015 441.818634,364.670715 
	C441.078278,363.637878 438.961517,362.911072 437.617218,363.099701 
	C426.896667,364.603607 411.151764,352.431671 408.063690,341.457397 
	C407.309631,338.777527 406.101410,337.918243 403.346436,337.941010 
	C388.015015,338.067749 372.681061,337.927521 357.351105,338.122894 
	C355.902710,338.141357 353.691620,339.532379 353.159546,340.829529 
	C347.427246,354.805878 337.652130,362.831573 322.099640,363.110229 
	C320.748688,363.134491 318.857269,364.365143 318.174408,365.575592 
	C308.626343,382.500519 296.663910,397.408569 279.860626,407.405090 
	C266.252747,415.500580 251.375824,417.416656 236.726776,409.830353 
	C227.385101,404.992615 222.721924,396.030426 220.073502,386.273376 
	C215.565521,369.665649 218.580215,353.259766 222.509094,337.023132 
	C227.865494,314.886932 236.502319,293.913879 247.615707,274.169495 
	C257.548767,256.522125 268.841125,239.623596 279.990082,222.695190 
	C281.591003,220.264374 285.712646,218.313950 288.741150,218.206253 
	C302.223358,217.726852 315.735565,217.844391 329.228394,218.137878 
	C331.701233,218.191666 334.135559,220.061142 336.583344,221.102676 
	C336.728638,221.164505 336.841431,221.311157 336.958984,221.428680 
	C341.432220,225.900284 345.178680,232.159241 350.576904,234.351929 
	C356.165405,236.621902 363.356049,234.978867 369.846008,234.991440 
	C382.011963,235.014999 394.180145,234.872162 406.342407,235.084763 
	C409.475922,235.139542 411.584167,234.182266 413.625702,231.943375 
	C416.877228,228.377472 420.157593,224.744629 423.928589,221.779541 
	C426.299591,219.915237 429.561157,218.247360 432.470764,218.164673 
	C445.792572,217.786087 459.131287,217.965836 472.463684,218.014420 
	C477.684326,218.033447 481.225739,220.944885 484.012878,225.067810 
	C498.174866,246.017227 511.355560,267.537140 522.153564,290.449127 
	C522.356873,290.880585 522.765503,291.215332 523.238037,291.789093 
	C548.274719,259.193726 578.825195,233.109085 614.773193,212.721313 
M654.024658,726.031006 
	C654.024658,726.031006 654.067078,726.092102 653.354370,725.522339 
	C653.832581,722.986877 654.310791,720.451416 654.859192,717.543884 
	C649.754028,717.543884 645.250549,717.798828 640.790955,717.466064 
	C636.987732,717.182129 635.381226,718.205261 634.560120,722.260498 
	C629.536499,747.071777 624.156860,771.811096 618.901672,796.575562 
	C617.057922,805.264282 615.230652,813.956421 613.394348,822.654053 
	C620.226929,822.654053 626.466431,822.654053 632.692810,822.654053 
	C637.618408,799.167908 642.446289,776.015076 647.338562,752.875793 
	C649.846130,741.015442 655.160034,736.816040 667.132263,737.020020 
	C668.098816,737.036438 669.065979,737.022217 670.293579,737.022217 
	C671.710938,730.089905 673.099365,723.298828 674.579651,716.058960 
	C672.871826,716.181641 671.586426,716.201843 670.322449,716.376831 
	C663.553650,717.313416 658.656067,721.462402 654.024658,726.031006 
M495.827850,724.814941 
	C495.827850,724.814941 495.580444,724.556824 495.474548,723.798096 
	C495.825439,721.876587 496.176361,719.955017 496.555206,717.880493 
	C489.993713,717.880493 483.772980,717.880493 477.408813,717.880493 
	C469.969757,752.973389 462.592438,787.775085 455.183380,822.726562 
	C461.844879,822.726562 468.103424,822.726562 474.486023,822.726562 
	C477.702606,807.507202 480.870605,792.530884 484.032471,777.553223 
	C486.509491,765.819702 488.921783,754.071960 491.480988,742.356384 
	C492.460083,737.874146 498.055420,733.975647 501.950562,735.134094 
	C507.510559,736.787720 504.441986,740.924072 503.836029,743.858582 
	C498.414001,770.115601 492.780243,796.328857 487.168793,822.743164 
	C493.290253,822.743164 499.203949,822.743164 505.311188,822.743164 
	C508.560486,807.393005 511.772430,792.256897 514.966736,777.117126 
	C517.408142,765.545593 519.778381,753.958740 522.281189,742.400635 
	C523.247559,737.937927 528.815125,734.012085 532.739807,735.132263 
	C538.340698,736.730896 535.294434,740.877747 534.687866,743.812561 
	C529.262085,770.064392 523.628784,796.273315 517.999939,822.761536 
	C524.172241,822.761536 530.068604,822.761536 536.186829,822.761536 
	C542.415771,793.247620 548.661438,763.935669 554.702820,734.581604 
	C555.288635,731.735413 554.984436,728.560059 554.448486,725.656494 
	C552.867188,717.089844 546.188599,713.716919 538.527405,717.814880 
	C533.582336,720.459900 529.051086,723.878662 524.157227,727.066040 
	C523.904053,726.431763 523.575256,725.709473 523.323303,724.961365 
	C520.232483,715.784363 514.277405,713.549255 506.007538,718.577637 
	C502.628143,720.632385 499.380157,722.903198 495.827850,724.814941 
M859.320190,412.967346 
	C907.519470,388.560516 955.718750,364.153687 1004.015564,339.697510 
	C1002.463928,337.044128 1001.012390,334.567017 999.565613,332.087158 
	C988.636353,313.354523 976.282227,295.601501 960.732910,280.441833 
	C948.858337,268.864807 936.518250,257.661346 923.564087,247.320312 
	C905.237854,232.690750 884.442627,221.978409 862.810425,213.110443 
	C845.701233,206.096695 828.067078,200.538071 809.659851,197.916962 
	C797.591614,196.198486 785.539001,193.711456 773.412048,193.215561 
	C754.644958,192.448151 735.762390,192.162933 717.177002,196.018967 
	C704.883423,198.569580 692.509827,200.857132 680.382935,204.060883 
	C659.011841,209.706818 639.001465,218.717941 619.756287,229.600052 
	C601.891602,239.701538 585.186584,251.489426 570.350525,265.499939 
	C557.789673,277.361816 546.576294,290.674683 535.098999,303.639709 
	C532.734192,306.311035 529.759705,310.995026 530.627563,313.534088 
	C534.393372,324.551483 537.167419,335.661285 539.225464,347.135590 
	C541.940613,362.273834 541.611023,376.970428 535.916992,391.217865 
	C531.505371,402.256531 523.826355,410.216766 511.710388,413.016541 
	C502.744080,415.088531 494.004822,414.136810 484.981262,411.319885 
	C479.629456,440.209991 475.664307,469.204010 480.357452,498.998230 
	C482.267426,498.998230 484.073395,498.998230 485.879333,498.998230 
	C583.042480,498.998230 680.205627,498.998230 777.368774,498.998230 
	C786.891296,498.998230 788.998474,501.152924 789.000061,510.942383 
	C789.004700,539.274719 789.001709,567.606995 789.001709,595.939331 
	C789.001709,597.542664 789.001709,599.145996 789.001709,600.998291 
	C791.342102,600.998291 793.148682,600.998291 794.955200,600.998291 
	C843.286804,600.998291 891.618591,601.065186 939.949463,600.876953 
	C944.012390,600.861084 946.824768,602.265991 948.609619,605.303833 
	C952.012329,611.095154 955.150269,617.070740 957.976624,623.165344 
	C962.852844,633.680481 967.406982,644.344971 972.737671,656.397217 
	C984.070984,639.827759 994.935913,623.942993 1005.954285,607.833984 
	C1004.114624,606.773010 1003.443970,606.339050 1002.733948,605.983704 
	C987.399658,598.309509 972.060730,590.644714 956.723267,582.976868 
	C890.047791,549.643311 823.377319,516.299744 756.685303,482.999298 
	C752.635315,480.977081 749.192383,477.926086 749.374207,473.568207 
	C749.547852,469.407837 752.423401,465.942627 756.672180,463.977753 
	C763.241882,460.939606 769.682068,457.619446 776.154907,454.374573 
	C803.622253,440.604980 831.081360,426.819092 859.320190,412.967346 
M216.500061,880.998291 
	C267.918976,880.998291 319.337891,880.998291 370.720581,880.998291 
	C370.720581,868.708984 370.720581,856.972168 370.720581,844.906189 
	C326.042389,844.906189 281.640656,844.906189 236.302078,844.906189 
	C239.369461,840.112610 241.925415,835.899475 244.692490,831.829895 
	C261.106415,807.689087 277.538147,783.560181 294.060608,759.493713 
	C295.839203,756.903076 296.468414,755.142456 294.142426,752.273987 
	C290.089874,747.276428 286.695312,741.741638 283.072510,736.399780 
	C269.137329,715.852234 255.203644,695.303589 241.319809,674.721313 
	C239.583908,672.147888 238.149231,669.371277 236.068314,665.825439 
	C281.779816,665.825439 326.326843,665.825439 370.674011,665.825439 
	C370.674011,615.603882 370.674011,565.874390 370.674011,516.315430 
	C311.621704,516.315430 252.894012,516.315430 194.287704,516.315430 
	C194.287704,638.011902 194.287704,759.394409 194.287704,880.998291 
	C201.548126,880.998291 208.524124,880.998291 216.500061,880.998291 
M588.500000,516.001709 
	C519.427490,516.001709 450.354980,516.001709 381.239075,516.001709 
	C381.239075,566.235840 381.239075,615.957703 381.239075,665.836304 
	C420.569763,665.836304 459.663147,665.836304 498.736633,665.836304 
	C504.106476,646.943176 511.865265,629.231995 520.909180,612.002380 
	C525.028870,604.153809 530.161133,600.690735 539.697693,600.747803 
	C614.993591,601.198547 690.293518,600.998291 765.592163,600.998291 
	C767.347229,600.998291 769.102295,600.998291 770.684814,600.998291 
	C770.684814,572.291443 770.684814,544.228333 770.684814,516.001709 
	C710.081055,516.001709 649.790527,516.001709 588.500000,516.001709 
M490.500000,899.001709 
	C454.072693,899.001709 417.645416,899.001709 381.292175,899.001709 
	C381.292175,935.980286 381.292175,972.383667 381.292175,1008.711060 
	C511.314972,1008.711060 641.047180,1008.711060 770.707886,1008.711060 
	C770.707886,972.019714 770.707886,935.616272 770.707886,899.001709 
	C677.445068,899.001709 584.472534,899.001709 490.500000,899.001709 
M263.964539,282.413818 
	C252.693298,303.075592 243.468384,324.587494 238.260223,347.593628 
	C235.877472,358.119080 234.845627,368.840363 236.930054,379.725739 
	C240.066849,396.106964 254.427551,400.459137 267.562775,393.610352 
	C282.951263,385.586731 293.473938,372.434906 301.999237,357.098999 
	C300.893066,356.128021 299.772003,355.134705 298.641174,354.152710 
	C288.427429,345.283478 284.784149,334.116089 288.069550,321.124359 
	C293.367126,300.175507 310.120605,292.038605 329.239441,295.476654 
	C340.521210,297.505432 348.986053,305.388733 353.138275,316.888885 
	C353.619995,318.223053 355.700500,319.846863 357.059418,319.864990 
	C372.715515,320.073730 388.375916,320.048676 404.033386,319.900696 
	C405.265839,319.889038 407.192291,318.769409 407.604645,317.703644 
	C413.782623,301.735443 425.203796,294.182922 442.400970,294.949432 
	C460.781189,295.768616 472.610168,310.575165 473.924042,326.527740 
	C475.046814,340.159851 468.339935,350.322937 458.192139,358.619965 
	C468.126282,374.981415 475.180023,385.053192 489.396606,392.953461 
	C497.807495,397.627472 511.162964,396.518982 517.087402,389.435211 
	C523.032288,382.326904 525.235901,373.646667 524.715698,365.026367 
	C524.046997,353.946716 522.387085,342.686066 519.301819,332.040253 
	C511.468597,305.011536 497.740173,280.630951 483.256042,256.680542 
	C481.537415,253.838684 479.514496,252.911972 476.184784,252.920013 
	C427.042816,253.038696 377.900513,253.001785 328.758270,253.001785 
	C314.265472,253.001770 299.771545,253.097137 285.280823,252.923370 
	C282.290497,252.887527 280.547546,253.684708 279.040680,256.330841 
	C274.186188,264.855347 269.057129,273.223450 263.964539,282.413818 
M317.500000,1008.998291 
	C335.261902,1008.998291 353.023804,1008.998291 370.709351,1008.998291 
	C370.709351,972.020325 370.709351,935.618164 370.709351,899.289246 
	C311.686493,899.289246 252.952911,899.289246 194.290649,899.289246 
	C194.290649,935.979675 194.290649,972.381836 194.290649,1008.998291 
	C235.219421,1008.998291 275.859711,1008.998291 317.500000,1008.998291 
M545.503113,856.001709 
	C542.504089,856.001709 539.468994,855.704529 536.513550,856.063354 
	C530.256897,856.822937 525.897278,854.605347 523.281799,848.816040 
	C521.961365,845.893250 519.762817,844.888489 516.316589,844.900696 
	C472.830597,845.054504 429.343872,845.001709 385.857330,845.001709 
	C384.274078,845.001709 382.690857,845.001709 381.343262,845.001709 
	C381.343262,857.421326 381.343262,869.159851 381.343262,880.693604 
	C511.394440,880.693604 641.104065,880.693604 770.690552,880.693604 
	C770.690552,872.313965 770.690552,864.242004 770.690552,856.001709 
	C695.755981,856.001709 621.129028,856.001709 545.503113,856.001709 
M819.500000,634.998291 
	C828.929077,634.998291 838.358215,634.998291 848.172852,634.998291 
	C848.172852,645.636108 848.172852,655.711182 848.172852,665.790771 
	C884.325745,665.790771 920.081482,665.790771 956.389709,665.790771 
	C954.766296,660.949890 953.261475,656.462830 951.765381,652.001709 
	C931.638184,652.001709 911.985718,652.001709 892.333252,652.001648 
	C882.977234,652.001648 880.999084,649.971497 880.998352,640.366516 
	C880.997742,632.947876 880.998291,625.529236 880.998291,618.296509 
	C784.622437,618.296509 688.913696,618.296509 593.001709,618.296509 
	C593.001709,626.733215 593.022766,634.876648 592.994873,643.019958 
	C592.973694,649.215088 590.205688,651.999512 584.145752,652.000671 
	C568.152710,652.003723 552.159729,652.001709 536.166687,652.001709 
	C522.482300,652.001709 522.479858,652.000854 518.144958,664.683960 
	C518.049927,664.962036 518.188904,665.320068 518.222717,665.683228 
	C554.096558,665.683228 589.966309,665.683228 626.231201,665.683228 
	C626.231201,655.296997 626.231201,645.221680 626.231201,634.998291 
	C690.585205,634.998291 754.542603,634.998291 819.500000,634.998291 
M761.729126,723.652344 
	C760.876404,709.583923 760.023682,695.515503 759.164001,681.331665 
	C752.853394,681.331665 747.058838,681.331665 740.859863,681.331665 
	C730.864807,728.407349 720.874573,775.460205 710.848816,822.680420 
	C717.345520,822.680420 723.565979,822.680420 729.766602,822.680420 
	C735.422241,795.958801 741.011230,769.552307 746.600159,743.145813 
	C747.059875,743.194763 747.519653,743.243713 747.979370,743.292664 
	C749.652222,769.725159 751.325012,796.157654 753.010254,822.785889 
	C759.268860,822.785889 765.190369,822.785889 771.391846,822.785889 
	C781.395752,775.638855 791.368958,728.636353 801.374146,681.483032 
	C794.724243,681.483032 788.632935,681.483032 782.478149,681.483032 
	C776.742615,708.229614 771.065857,734.701782 765.389160,761.173889 
	C764.915771,761.094360 764.442383,761.014893 763.968994,760.935425 
	C763.260071,748.823364 762.551086,736.711365 761.729126,723.652344 
M354.872528,757.440735 
	C358.121002,742.121460 361.307251,726.788452 364.676086,711.495728 
	C365.273163,708.785217 365.982361,705.571472 367.812256,703.803772 
	C369.782471,701.900513 373.209808,700.501099 375.846527,700.722900 
	C377.133026,700.831238 378.376007,705.041077 379.043976,707.552551 
	C379.435333,709.024048 378.721802,710.820068 378.392242,712.447266 
	C377.087555,718.889099 375.738220,725.321899 374.364471,731.955811 
	C381.531769,731.955811 388.149017,731.955811 395.489075,731.955811 
	C397.055481,721.848450 399.417084,711.882507 399.944244,701.820374 
	C400.548859,690.279419 394.380646,682.412598 384.344299,680.482910 
	C374.208282,678.534058 364.788971,680.552429 357.012238,687.868286 
	C350.123566,694.348694 345.898071,702.322754 343.946045,711.553162 
	C339.602753,732.090942 335.170288,752.609985 330.896149,773.162109 
	C328.795898,783.261047 326.425720,793.351379 325.197266,803.568237 
	C324.310699,810.941833 326.470917,818.166565 333.615204,822.036987 
	C340.828400,825.944763 348.374420,825.366943 355.521057,821.283264 
	C357.744080,820.013000 359.805756,818.460388 362.177460,816.879639 
	C362.753998,819.186584 363.216217,821.036072 363.656281,822.796875 
	C367.796997,822.796875 371.589813,822.796875 375.667847,822.796875 
	C380.576874,799.431213 385.455902,776.208557 390.354706,752.891479 
	C380.354614,752.891479 370.945129,752.891479 361.414917,752.891479 
	C360.225281,758.659729 359.098877,764.121277 357.884796,770.008179 
	C360.829865,770.008179 363.294861,770.008179 366.397675,770.008179 
	C363.975616,780.163452 361.964111,789.938171 359.232513,799.507385 
	C357.779480,804.597595 353.300293,807.241394 349.913879,805.767700 
	C345.408081,803.806946 345.848114,799.824219 346.681183,795.901978 
	C349.346191,783.354858 352.014252,770.808411 354.872528,757.440735 
M755.500000,644.001709 
	C715.741943,644.001709 675.983826,644.001709 636.289917,644.001709 
	C636.289917,651.644653 636.289917,658.717529 636.289917,665.714722 
	C703.976501,665.714722 771.374512,665.714722 838.710083,665.714722 
	C838.710083,658.355408 838.710083,651.282532 838.710083,644.267517 
	C838.111877,644.145203 837.799866,644.025696 837.487793,644.025513 
	C810.491882,644.011658 783.495911,644.007019 755.500000,644.001709 
M449.052917,779.668762 
	C451.910339,766.151611 454.970093,752.673279 457.568970,739.106628 
	C460.230713,725.211609 450.407959,714.716003 436.393646,716.049500 
	C421.103058,717.504333 406.937866,732.838074 406.423584,748.653564 
	C412.548309,748.653564 418.668488,748.653564 424.563171,748.653564 
	C426.165588,744.298950 427.272186,739.873718 429.446228,736.056458 
	C430.362091,734.448242 433.599060,733.355713 435.646271,733.538330 
	C436.669922,733.629639 438.170105,737.150391 438.081146,739.055908 
	C437.912750,742.664551 436.506378,746.197144 436.071930,749.816345 
	C435.579102,753.922424 433.425751,756.305786 429.812805,758.020874 
	C424.869202,760.367737 419.843079,762.691956 415.297516,765.698792 
	C398.561676,776.769409 391.034912,792.762939 392.253387,812.534302 
	C392.902252,823.063171 400.783356,827.168701 410.434448,822.857666 
	C412.821655,821.791321 414.963409,820.108093 417.078064,818.521851 
	C418.564056,817.407288 419.813049,815.976746 421.575592,814.299316 
	C421.763519,817.721008 421.901917,820.240845 422.044434,822.835999 
	C428.751068,822.835999 434.869965,822.835999 440.345703,822.835999 
	C443.234924,808.530029 446.065369,794.514832 449.052917,779.668762 
M569.705750,735.228577 
	C568.576904,738.352844 567.093262,741.398315 566.378479,744.614624 
	C562.550964,761.837341 558.658508,779.054077 555.376099,796.384155 
	C554.443726,801.306885 554.918152,806.697205 555.758057,811.703491 
	C556.806091,817.950134 561.117615,822.203918 567.244263,823.582214 
	C575.592529,825.460205 583.707703,824.815979 591.011597,819.436218 
	C602.505432,810.970276 605.639282,798.589417 607.565002,785.404236 
	C601.639648,785.404236 595.876709,785.404236 590.094177,785.404236 
	C588.623962,790.886475 587.470398,796.255127 585.709900,801.416687 
	C584.287109,805.588257 581.109192,808.320618 576.453918,806.907104 
	C572.084900,805.580505 572.495605,801.344116 573.054321,798.050720 
	C574.410828,790.055481 576.325378,782.154907 578.086426,773.880859 
	C588.967651,773.880859 599.552124,773.880859 610.289734,773.880859 
	C612.160645,764.892761 614.096985,756.298035 615.690247,747.640137 
	C616.497559,743.252869 617.250183,738.725281 617.044556,734.306946 
	C616.491211,722.421387 609.641052,716.204346 597.806702,715.978821 
	C584.196838,715.719482 576.086609,723.589111 569.705750,735.228577 
M824.421875,790.879089 
	C823.402405,794.553955 822.626526,798.319580 821.299011,801.879578 
	C819.786011,805.936646 816.617798,808.204285 812.247070,806.908752 
	C808.067017,805.669739 808.348694,801.620056 808.866821,798.501709 
	C810.223938,790.334656 812.143555,782.261047 813.864197,774.029419 
	C824.785339,774.029419 835.266418,774.029419 846.182190,774.029419 
	C848.446045,762.657593 851.089783,751.474976 852.782288,740.150208 
	C853.942322,732.388184 853.042847,724.397522 845.743408,719.537354 
	C837.901489,714.315979 829.335022,715.050171 820.919922,718.550049 
	C819.713318,719.051880 818.640930,719.913635 817.567627,720.693176 
	C809.211975,726.761780 804.317017,735.099487 802.113281,745.020996 
	C798.393188,761.769043 794.633911,778.515381 791.398193,795.359802 
	C790.446594,800.313660 790.632080,805.675293 791.324036,810.708740 
	C792.237915,817.355896 796.486755,822.069092 803.057434,823.574097 
	C811.406921,825.486511 819.538940,824.825562 826.838562,819.436829 
	C838.302917,810.973694 841.504395,798.666931 843.351135,785.483276 
	C837.321289,785.483276 831.581909,785.483276 825.706543,785.483276 
	C825.313110,787.183655 824.978882,788.627869 824.421875,790.879089 
M886.376282,757.022766 
	C887.921082,749.744934 889.465881,742.467163 891.078918,734.867920 
	C895.706299,734.867920 899.969788,734.867920 904.339539,734.867920 
	C905.607666,729.013000 906.793884,723.536011 908.109192,717.463257 
	C903.523621,717.463257 899.447510,717.463257 894.891785,717.463257 
	C896.701111,708.638367 898.391235,700.394470 900.148987,691.820801 
	C893.505554,691.820801 887.303833,691.820801 880.900085,691.820801 
	C879.499756,698.547119 877.840942,705.010803 876.893799,711.577026 
	C876.227417,716.196533 874.582581,718.585144 869.624023,717.559021 
	C866.476868,716.907715 865.240356,718.417969 864.766968,721.476379 
	C864.085205,725.881470 862.934326,730.213989 861.891846,734.998962 
	C865.187500,734.998962 868.144226,734.998962 871.576050,734.998962 
	C871.154358,737.200378 870.844238,738.966187 870.475952,740.719788 
	C866.847839,757.995605 863.053650,775.238770 859.666016,792.561523 
	C858.589172,798.067932 858.070068,803.799316 858.230957,809.400940 
	C858.410889,815.666748 860.644165,821.714966 867.538269,823.218994 
	C872.608276,824.325073 878.052246,823.815186 883.328064,823.780823 
	C884.176758,823.775269 885.566284,822.622742 885.772705,821.773499 
	C887.168213,816.034424 888.312500,810.234253 889.588562,804.215576 
	C879.084961,805.776917 877.169495,803.843750 878.687927,794.048340 
	C878.942749,792.404480 879.305908,790.776550 879.646606,789.147034 
	C881.827881,778.713867 884.016846,768.282166 886.376282,757.022766 
M669.373657,786.831055 
	C668.283386,788.701965 667.261963,790.617188 666.091248,792.436340 
	C660.127258,801.704163 654.907227,811.241699 654.752380,822.697266 
	C670.314941,822.697266 685.904785,822.697266 701.570557,822.697266 
	C702.771545,816.796143 703.914734,811.179321 705.164978,805.036621 
	C696.072571,805.036621 687.670166,805.036621 678.642090,805.036621 
	C679.754150,803.047668 680.517944,801.627502 681.330688,800.236023 
	C693.594421,779.237671 706.126221,758.388855 717.959778,737.151062 
	C721.148499,731.428284 722.221802,724.526794 724.414185,717.705566 
	C709.160645,717.705566 695.206665,717.705566 680.838135,717.705566 
	C679.590942,723.390503 678.357422,729.013367 677.008057,735.163879 
	C684.497498,735.163879 691.562561,735.163879 699.549011,735.163879 
	C689.331970,752.675049 679.547791,769.444458 669.373657,786.831055 
M943.471680,766.973755 
	C948.025208,773.585999 952.578735,780.198242 957.486755,787.325317 
	C964.519714,762.948914 967.282349,738.821106 965.683838,713.904175 
	C951.621460,726.135803 948.906921,744.836121 938.510071,759.085754 
	C939.821106,761.195984 941.428101,763.782532 943.471680,766.973755 
M431.823608,342.981750 
	C435.573364,343.654236 439.363007,345.051086 443.064453,344.847168 
	C450.571869,344.433502 456.514160,337.366638 457.062012,329.948944 
	C457.616699,322.438995 451.226013,314.440704 444.460541,313.051300 
	C436.000732,311.313934 427.532379,315.924316 425.000580,323.245331 
	C422.228394,331.261292 424.980133,337.486084 431.823608,342.981750 
M320.134918,312.975525 
	C311.520447,313.333557 304.883606,320.473389 305.009460,329.322357 
	C305.136810,338.278748 311.907867,344.906891 321.507416,345.764191 
	C329.200470,346.451202 337.572937,338.055145 337.998108,330.330963 
	C338.536438,320.550507 332.707428,314.527649 320.134918,312.975525 
M549.500549,634.998291 
	C557.917603,634.998291 566.334595,634.998291 574.739197,634.998291 
	C574.739197,629.062805 574.739197,623.666504 574.739197,618.002014 
	C563.205994,618.002014 551.929199,617.947388 540.654602,618.081299 
	C539.445984,618.095642 537.678101,618.894348 537.145691,619.864746 
	C534.542603,624.609131 532.270508,629.535095 529.585938,634.998291 
	C536.318604,634.998291 542.409729,634.998291 549.500549,634.998291 
M942.970886,632.688965 
	C940.482239,627.846191 937.993591,623.003418 935.543640,618.235962 
	C923.433350,618.235962 911.377991,618.235962 899.217957,618.235962 
	C899.217957,623.861450 899.217957,629.250671 899.217957,634.996155 
	C913.665527,634.996155 927.899963,635.005615 942.134033,634.933350 
	C942.440552,634.931763 942.742371,633.991760 942.970886,632.688965 
M461.481934,243.998199 
	C465.641266,243.998199 469.800568,243.998199 474.058533,243.998199 
	C471.852966,237.172241 467.798309,235.271255 461.585327,235.868988 
	C455.317963,236.471954 448.857574,236.666519 442.645447,235.827698 
	C435.444794,234.855362 432.075562,239.093201 427.901031,243.998199 
	C439.226288,243.998199 449.856506,243.998199 461.481934,243.998199 
M289.002350,240.500946 
	C288.419250,241.590408 287.836182,242.679886 287.286011,243.707886 
	C302.566681,243.707886 317.585846,243.707886 332.722382,243.707886 
	C328.921387,238.114029 324.493866,235.070358 317.399384,235.834763 
	C310.327728,236.596710 303.104462,236.165436 295.958557,235.928787 
	C292.669342,235.819855 290.624908,236.900787 289.002350,240.500946 
z"/>
<path fill="#000000" opacity="1.000000" stroke="none" 
	d="
M858.931824,413.003235 
	C831.081360,426.819092 803.622253,440.604980 776.154907,454.374573 
	C769.682068,457.619446 763.241882,460.939606 756.672180,463.977753 
	C752.423401,465.942627 749.547852,469.407837 749.374207,473.568207 
	C749.192383,477.926086 752.635315,480.977081 756.685303,482.999298 
	C823.377319,516.299744 890.047791,549.643311 956.723267,582.976868 
	C972.060730,590.644714 987.399658,598.309509 1002.733948,605.983704 
	C1003.443970,606.339050 1004.114624,606.773010 1005.954285,607.833984 
	C994.935913,623.942993 984.070984,639.827759 972.737671,656.397217 
	C967.406982,644.344971 962.852844,633.680481 957.976624,623.165344 
	C955.150269,617.070740 952.012329,611.095154 948.609619,605.303833 
	C946.824768,602.265991 944.012390,600.861084 939.949463,600.876953 
	C891.618591,601.065186 843.286804,600.998291 794.955200,600.998291 
	C793.148682,600.998291 791.342102,600.998291 789.001709,600.998291 
	C789.001709,599.145996 789.001709,597.542664 789.001709,595.939331 
	C789.001709,567.606995 789.004700,539.274719 789.000061,510.942383 
	C788.998474,501.152924 786.891296,498.998230 777.368774,498.998230 
	C680.205627,498.998230 583.042480,498.998230 485.879333,498.998230 
	C484.073395,498.998230 482.267426,498.998230 480.357452,498.998230 
	C475.664307,469.204010 479.629456,440.209991 484.981262,411.319885 
	C494.004822,414.136810 502.744080,415.088531 511.710388,413.016541 
	C523.826355,410.216766 531.505371,402.256531 535.916992,391.217865 
	C541.611023,376.970428 541.940613,362.273834 539.225464,347.135590 
	C537.167419,335.661285 534.393372,324.551483 530.627563,313.534088 
	C529.759705,310.995026 532.734192,306.311035 535.098999,303.639709 
	C546.576294,290.674683 557.789673,277.361816 570.350525,265.499939 
	C585.186584,251.489426 601.891602,239.701538 619.756287,229.600052 
	C639.001465,218.717941 659.011841,209.706818 680.382935,204.060883 
	C692.509827,200.857132 704.883423,198.569580 717.177002,196.018967 
	C735.762390,192.162933 754.644958,192.448151 773.412048,193.215561 
	C785.539001,193.711456 797.591614,196.198486 809.659851,197.916962 
	C828.067078,200.538071 845.701233,206.096695 862.810425,213.110443 
	C884.442627,221.978409 905.237854,232.690750 923.564087,247.320312 
	C936.518250,257.661346 948.858337,268.864807 960.732910,280.441833 
	C976.282227,295.601501 988.636353,313.354523 999.565613,332.087158 
	C1001.012390,334.567017 1002.463928,337.044128 1004.015564,339.697510 
	C955.718750,364.153687 907.519470,388.560516 858.931824,413.003235 
M737.000000,337.709045 
	C736.017456,352.352203 740.638977,364.269775 752.724976,373.420044 
	C763.544922,381.611816 784.470093,382.359528 795.480225,374.979095 
	C805.006409,368.593445 811.377502,360.288452 813.276855,348.493225 
	C815.270935,336.109497 812.492371,325.238892 804.396484,316.035553 
	C794.308472,304.567627 781.229614,300.915253 766.442993,304.066711 
	C750.858398,307.388214 738.232849,321.378693 737.000000,337.709045 
z"/>
<path fill="#000000" opacity="1.000000" stroke="none" 
	d="
M216.000092,880.998291 
	C208.524124,880.998291 201.548126,880.998291 194.287704,880.998291 
	C194.287704,759.394409 194.287704,638.011902 194.287704,516.315430 
	C252.894012,516.315430 311.621704,516.315430 370.674011,516.315430 
	C370.674011,565.874390 370.674011,615.603882 370.674011,665.825439 
	C326.326843,665.825439 281.779816,665.825439 236.068314,665.825439 
	C238.149231,669.371277 239.583908,672.147888 241.319809,674.721313 
	C255.203644,695.303589 269.137329,715.852234 283.072510,736.399780 
	C286.695312,741.741638 290.089874,747.276428 294.142426,752.273987 
	C296.468414,755.142456 295.839203,756.903076 294.060608,759.493713 
	C277.538147,783.560181 261.106415,807.689087 244.692490,831.829895 
	C241.925415,835.899475 239.369461,840.112610 236.302078,844.906189 
	C281.640656,844.906189 326.042389,844.906189 370.720581,844.906189 
	C370.720581,856.972168 370.720581,868.708984 370.720581,880.998291 
	C319.337891,880.998291 267.918976,880.998291 216.000092,880.998291 
M316.997589,583.999207 
	C318.991394,583.999451 321.000763,584.160522 322.975952,583.968811 
	C328.211243,583.460815 332.232208,581.183044 335.145721,576.499695 
	C339.443268,569.591614 338.831482,562.802734 334.692047,556.521790 
	C330.574066,550.273438 323.720123,548.847900 316.872833,550.137024 
	C307.742615,551.856140 301.720490,560.841064 303.348450,569.813354 
	C304.682007,577.163025 309.515900,581.390259 316.997589,583.999207 
z"/>
<path fill="#000000" opacity="1.000000" stroke="none" 
	d="
M589.000000,516.001709 
	C649.790527,516.001709 710.081055,516.001709 770.684814,516.001709 
	C770.684814,544.228333 770.684814,572.291443 770.684814,600.998291 
	C769.102295,600.998291 767.347229,600.998291 765.592163,600.998291 
	C690.293518,600.998291 614.993591,601.198547 539.697693,600.747803 
	C530.161133,600.690735 525.028870,604.153809 520.909180,612.002380 
	C511.865265,629.231995 504.106476,646.943176 498.736633,665.836304 
	C459.663147,665.836304 420.569763,665.836304 381.239075,665.836304 
	C381.239075,615.957703 381.239075,566.235840 381.239075,516.001709 
	C450.354980,516.001709 519.427490,516.001709 589.000000,516.001709 
z"/>
<path fill="#000000" opacity="1.000000" stroke="none" 
	d="
M491.000000,899.001709 
	C584.472534,899.001709 677.445068,899.001709 770.707886,899.001709 
	C770.707886,935.616272 770.707886,972.019714 770.707886,1008.711060 
	C641.047180,1008.711060 511.314972,1008.711060 381.292175,1008.711060 
	C381.292175,972.383667 381.292175,935.980286 381.292175,899.001709 
	C417.645416,899.001709 454.072693,899.001709 491.000000,899.001709 
M426.716980,965.187073 
	C428.619354,965.458069 430.521606,965.965393 432.424072,965.966125 
	C527.398865,966.004761 622.373718,966.000000 717.348511,966.000000 
	C718.181641,966.000000 719.015320,966.020996 719.847717,965.996460 
	C725.060364,965.842957 727.976990,962.916748 727.997681,957.812317 
	C728.010437,954.646545 728.008972,951.480591 727.997925,948.314819 
	C727.978760,942.805908 726.187195,941.003479 720.660583,941.003174 
	C623.852905,940.998657 527.045288,940.998718 430.237640,941.003418 
	C425.097748,941.003662 422.143585,943.903748 422.011871,949.102539 
	C421.944366,951.766785 421.496613,954.562439 422.134674,957.065796 
	C422.843170,959.845581 424.593018,962.360046 426.716980,965.187073 
z"/>
<path fill="#000000" opacity="1.000000" stroke="none" 
	d="
M263.999237,282.032837 
	C269.057129,273.223450 274.186188,264.855347 279.040680,256.330841 
	C280.547546,253.684708 282.290497,252.887527 285.280823,252.923370 
	C299.771545,253.097137 314.265472,253.001770 328.758270,253.001785 
	C377.900513,253.001785 427.042816,253.038696 476.184784,252.920013 
	C479.514496,252.911972 481.537415,253.838684 483.256042,256.680542 
	C497.740173,280.630951 511.468597,305.011536 519.301819,332.040253 
	C522.387085,342.686066 524.046997,353.946716 524.715698,365.026367 
	C525.235901,373.646667 523.032288,382.326904 517.087402,389.435211 
	C511.162964,396.518982 497.807495,397.627472 489.396606,392.953461 
	C475.180023,385.053192 468.126282,374.981415 458.192139,358.619965 
	C468.339935,350.322937 475.046814,340.159851 473.924042,326.527740 
	C472.610168,310.575165 460.781189,295.768616 442.400970,294.949432 
	C425.203796,294.182922 413.782623,301.735443 407.604645,317.703644 
	C407.192291,318.769409 405.265839,319.889038 404.033386,319.900696 
	C388.375916,320.048676 372.715515,320.073730 357.059418,319.864990 
	C355.700500,319.846863 353.619995,318.223053 353.138275,316.888885 
	C348.986053,305.388733 340.521210,297.505432 329.239441,295.476654 
	C310.120605,292.038605 293.367126,300.175507 288.069550,321.124359 
	C284.784149,334.116089 288.427429,345.283478 298.641174,354.152710 
	C299.772003,355.134705 300.893066,356.128021 301.999237,357.098999 
	C293.473938,372.434906 282.951263,385.586731 267.562775,393.610352 
	C254.427551,400.459137 240.066849,396.106964 236.930054,379.725739 
	C234.845627,368.840363 235.877472,358.119080 238.260223,347.593628 
	C243.468384,324.587494 252.693298,303.075592 263.999237,282.032837 
z"/>
<path fill="#000000" opacity="1.000000" stroke="none" 
	d="
M317.000000,1008.998291 
	C275.859711,1008.998291 235.219421,1008.998291 194.290649,1008.998291 
	C194.290649,972.381836 194.290649,935.979675 194.290649,899.289246 
	C252.952911,899.289246 311.686493,899.289246 370.709351,899.289246 
	C370.709351,935.618164 370.709351,972.020325 370.709351,1008.998291 
	C353.023804,1008.998291 335.261902,1008.998291 317.000000,1008.998291 
z"/>
<path fill="#000000" opacity="1.000000" stroke="none" 
	d="
M546.002563,856.001709 
	C621.129028,856.001709 695.755981,856.001709 770.690552,856.001709 
	C770.690552,864.242004 770.690552,872.313965 770.690552,880.693604 
	C641.104065,880.693604 511.394440,880.693604 381.343262,880.693604 
	C381.343262,869.159851 381.343262,857.421326 381.343262,845.001709 
	C382.690857,845.001709 384.274078,845.001709 385.857330,845.001709 
	C429.343872,845.001709 472.830597,845.054504 516.316589,844.900696 
	C519.762817,844.888489 521.961365,845.893250 523.281799,848.816040 
	C525.897278,854.605347 530.256897,856.822937 536.513550,856.063354 
	C539.468994,855.704529 542.504089,856.001709 546.002563,856.001709 
z"/>
<path fill="#000000" opacity="1.000000" stroke="none" 
	d="
M819.000000,634.998291 
	C754.542603,634.998291 690.585205,634.998291 626.231201,634.998291 
	C626.231201,645.221680 626.231201,655.296997 626.231201,665.683228 
	C589.966309,665.683228 554.096558,665.683228 518.222717,665.683228 
	C518.188904,665.320068 518.049927,664.962036 518.144958,664.683960 
	C522.479858,652.000854 522.482300,652.001709 536.166687,652.001709 
	C552.159729,652.001709 568.152710,652.003723 584.145752,652.000671 
	C590.205688,651.999512 592.973694,649.215088 592.994873,643.019958 
	C593.022766,634.876648 593.001709,626.733215 593.001709,618.296509 
	C688.913696,618.296509 784.622437,618.296509 880.998291,618.296509 
	C880.998291,625.529236 880.997742,632.947876 880.998352,640.366516 
	C880.999084,649.971497 882.977234,652.001648 892.333252,652.001648 
	C911.985718,652.001709 931.638184,652.001709 951.765381,652.001709 
	C953.261475,656.462830 954.766296,660.949890 956.389709,665.790771 
	C920.081482,665.790771 884.325745,665.790771 848.172852,665.790771 
	C848.172852,655.711182 848.172852,645.636108 848.172852,634.998291 
	C838.358215,634.998291 828.929077,634.998291 819.000000,634.998291 
z"/>
<path fill="#050505" opacity="1.000000" stroke="none" 
	d="
M761.785645,724.125854 
	C762.551086,736.711365 763.260071,748.823364 763.968994,760.935425 
	C764.442383,761.014893 764.915771,761.094360 765.389160,761.173889 
	C771.065857,734.701782 776.742615,708.229614 782.478149,681.483032 
	C788.632935,681.483032 794.724243,681.483032 801.374146,681.483032 
	C791.368958,728.636353 781.395752,775.638855 771.391846,822.785889 
	C765.190369,822.785889 759.268860,822.785889 753.010254,822.785889 
	C751.325012,796.157654 749.652222,769.725159 747.979370,743.292664 
	C747.519653,743.243713 747.059875,743.194763 746.600159,743.145813 
	C741.011230,769.552307 735.422241,795.958801 729.766602,822.680420 
	C723.565979,822.680420 717.345520,822.680420 710.848816,822.680420 
	C720.874573,775.460205 730.864807,728.407349 740.859863,681.331665 
	C747.058838,681.331665 752.853394,681.331665 759.164001,681.331665 
	C760.023682,695.515503 760.876404,709.583923 761.785645,724.125854 
z"/>
<path fill="#050505" opacity="1.000000" stroke="none" 
	d="
M496.072388,725.075745 
	C499.380157,722.903198 502.628143,720.632385 506.007538,718.577637 
	C514.277405,713.549255 520.232483,715.784363 523.323303,724.961365 
	C523.575256,725.709473 523.904053,726.431763 524.157227,727.066040 
	C529.051086,723.878662 533.582336,720.459900 538.527405,717.814880 
	C546.188599,713.716919 552.867188,717.089844 554.448486,725.656494 
	C554.984436,728.560059 555.288635,731.735413 554.702820,734.581604 
	C548.661438,763.935669 542.415771,793.247620 536.186829,822.761536 
	C530.068604,822.761536 524.172241,822.761536 517.999939,822.761536 
	C523.628784,796.273315 529.262085,770.064392 534.687866,743.812561 
	C535.294434,740.877747 538.340698,736.730896 532.739807,735.132263 
	C528.815125,734.012085 523.247559,737.937927 522.281189,742.400635 
	C519.778381,753.958740 517.408142,765.545593 514.966736,777.117126 
	C511.772430,792.256897 508.560486,807.393005 505.311188,822.743164 
	C499.203949,822.743164 493.290253,822.743164 487.168793,822.743164 
	C492.780243,796.328857 498.414001,770.115601 503.836029,743.858582 
	C504.441986,740.924072 507.510559,736.787720 501.950562,735.134094 
	C498.055420,733.975647 492.460083,737.874146 491.480988,742.356384 
	C488.921783,754.071960 486.509491,765.819702 484.032471,777.553223 
	C480.870605,792.530884 477.702606,807.507202 474.486023,822.726562 
	C468.103424,822.726562 461.844879,822.726562 455.183380,822.726562 
	C462.592438,787.775085 469.969757,752.973389 477.408813,717.880493 
	C483.772980,717.880493 489.993713,717.880493 496.555206,717.880493 
	C496.176361,719.955017 495.825439,721.876587 495.365723,724.360352 
	C495.351349,725.200012 495.445801,725.477356 495.540283,725.754761 
	C495.717621,725.528381 495.894989,725.302063 496.072388,725.075745 
z"/>
<path fill="#040404" opacity="1.000000" stroke="none" 
	d="
M354.776855,757.851196 
	C352.014252,770.808411 349.346191,783.354858 346.681183,795.901978 
	C345.848114,799.824219 345.408081,803.806946 349.913879,805.767700 
	C353.300293,807.241394 357.779480,804.597595 359.232513,799.507385 
	C361.964111,789.938171 363.975616,780.163452 366.397675,770.008179 
	C363.294861,770.008179 360.829865,770.008179 357.884796,770.008179 
	C359.098877,764.121277 360.225281,758.659729 361.414917,752.891479 
	C370.945129,752.891479 380.354614,752.891479 390.354706,752.891479 
	C385.455902,776.208557 380.576874,799.431213 375.667847,822.796875 
	C371.589813,822.796875 367.796997,822.796875 363.656281,822.796875 
	C363.216217,821.036072 362.753998,819.186584 362.177460,816.879639 
	C359.805756,818.460388 357.744080,820.013000 355.521057,821.283264 
	C348.374420,825.366943 340.828400,825.944763 333.615204,822.036987 
	C326.470917,818.166565 324.310699,810.941833 325.197266,803.568237 
	C326.425720,793.351379 328.795898,783.261047 330.896149,773.162109 
	C335.170288,752.609985 339.602753,732.090942 343.946045,711.553162 
	C345.898071,702.322754 350.123566,694.348694 357.012238,687.868286 
	C364.788971,680.552429 374.208282,678.534058 384.344299,680.482910 
	C394.380646,682.412598 400.548859,690.279419 399.944244,701.820374 
	C399.417084,711.882507 397.055481,721.848450 395.489075,731.955811 
	C388.149017,731.955811 381.531769,731.955811 374.364471,731.955811 
	C375.738220,725.321899 377.087555,718.889099 378.392242,712.447266 
	C378.721802,710.820068 379.435333,709.024048 379.043976,707.552551 
	C378.376007,705.041077 377.133026,700.831238 375.846527,700.722900 
	C373.209808,700.501099 369.782471,701.900513 367.812256,703.803772 
	C365.982361,705.571472 365.273163,708.785217 364.676086,711.495728 
	C361.307251,726.788452 358.121002,742.121460 354.776855,757.851196 
z"/>
<path fill="#000000" opacity="1.000000" stroke="none" 
	d="
M756.000000,644.001709 
	C783.495911,644.007019 810.491882,644.011658 837.487793,644.025513 
	C837.799866,644.025696 838.111877,644.145203 838.710083,644.267517 
	C838.710083,651.282532 838.710083,658.355408 838.710083,665.714722 
	C771.374512,665.714722 703.976501,665.714722 636.289917,665.714722 
	C636.289917,658.717529 636.289917,651.644653 636.289917,644.001709 
	C675.983826,644.001709 715.741943,644.001709 756.000000,644.001709 
z"/>
<path fill="#050505" opacity="1.000000" stroke="none" 
	d="
M448.974365,780.084229 
	C446.065369,794.514832 443.234924,808.530029 440.345703,822.835999 
	C434.869965,822.835999 428.751068,822.835999 422.044434,822.835999 
	C421.901917,820.240845 421.763519,817.721008 421.575592,814.299316 
	C419.813049,815.976746 418.564056,817.407288 417.078064,818.521851 
	C414.963409,820.108093 412.821655,821.791321 410.434448,822.857666 
	C400.783356,827.168701 392.902252,823.063171 392.253387,812.534302 
	C391.034912,792.762939 398.561676,776.769409 415.297516,765.698792 
	C419.843079,762.691956 424.869202,760.367737 429.812805,758.020874 
	C433.425751,756.305786 435.579102,753.922424 436.071930,749.816345 
	C436.506378,746.197144 437.912750,742.664551 438.081146,739.055908 
	C438.170105,737.150391 436.669922,733.629639 435.646271,733.538330 
	C433.599060,733.355713 430.362091,734.448242 429.446228,736.056458 
	C427.272186,739.873718 426.165588,744.298950 424.563171,748.653564 
	C418.668488,748.653564 412.548309,748.653564 406.423584,748.653564 
	C406.937866,732.838074 421.103058,717.504333 436.393646,716.049500 
	C450.407959,714.716003 460.230713,725.211609 457.568970,739.106628 
	C454.970093,752.673279 451.910339,766.151611 448.974365,780.084229 
M422.313446,777.768127 
	C416.897705,782.864868 413.937592,789.283142 412.556213,796.450256 
	C411.930939,799.694336 411.332306,803.318298 415.176086,805.144531 
	C418.130615,806.548096 424.124268,803.898621 425.071747,800.302002 
	C427.444397,791.295471 429.237000,782.136230 431.262299,773.038208 
	C430.888885,772.816467 430.515503,772.594788 430.142120,772.373108 
	C427.705902,774.005005 425.269653,775.636963 422.313446,777.768127 
z"/>
<path fill="#040404" opacity="1.000000" stroke="none" 
	d="
M569.853027,734.885620 
	C576.086609,723.589111 584.196838,715.719482 597.806702,715.978821 
	C609.641052,716.204346 616.491211,722.421387 617.044556,734.306946 
	C617.250183,738.725281 616.497559,743.252869 615.690247,747.640137 
	C614.096985,756.298035 612.160645,764.892761 610.289734,773.880859 
	C599.552124,773.880859 588.967651,773.880859 578.086426,773.880859 
	C576.325378,782.154907 574.410828,790.055481 573.054321,798.050720 
	C572.495605,801.344116 572.084900,805.580505 576.453918,806.907104 
	C581.109192,808.320618 584.287109,805.588257 585.709900,801.416687 
	C587.470398,796.255127 588.623962,790.886475 590.094177,785.404236 
	C595.876709,785.404236 601.639648,785.404236 607.565002,785.404236 
	C605.639282,798.589417 602.505432,810.970276 591.011597,819.436218 
	C583.707703,824.815979 575.592529,825.460205 567.244263,823.582214 
	C561.117615,822.203918 556.806091,817.950134 555.758057,811.703491 
	C554.918152,806.697205 554.443726,801.306885 555.376099,796.384155 
	C558.658508,779.054077 562.550964,761.837341 566.378479,744.614624 
	C567.093262,741.398315 568.576904,738.352844 569.853027,734.885620 
M598.421387,735.487915 
	C594.308960,731.681274 589.743774,732.057800 587.333313,737.541687 
	C584.441162,744.121399 582.876221,751.284485 580.535278,758.845276 
	C585.432861,758.845276 589.238098,758.943970 593.031372,758.774597 
	C593.958069,758.733215 595.536133,757.928955 595.644836,757.279602 
	C596.814453,750.296936 597.749451,743.275085 598.421387,735.487915 
z"/>
<path fill="#040404" opacity="1.000000" stroke="none" 
	d="
M824.533264,790.475586 
	C824.978882,788.627869 825.313110,787.183655 825.706543,785.483276 
	C831.581909,785.483276 837.321289,785.483276 843.351135,785.483276 
	C841.504395,798.666931 838.302917,810.973694 826.838562,819.436829 
	C819.538940,824.825562 811.406921,825.486511 803.057434,823.574097 
	C796.486755,822.069092 792.237915,817.355896 791.324036,810.708740 
	C790.632080,805.675293 790.446594,800.313660 791.398193,795.359802 
	C794.633911,778.515381 798.393188,761.769043 802.113281,745.020996 
	C804.317017,735.099487 809.211975,726.761780 817.567627,720.693176 
	C818.640930,719.913635 819.713318,719.051880 820.919922,718.550049 
	C829.335022,715.050171 837.901489,714.315979 845.743408,719.537354 
	C853.042847,724.397522 853.942322,732.388184 852.782288,740.150208 
	C851.089783,751.474976 848.446045,762.657593 846.182190,774.029419 
	C835.266418,774.029419 824.785339,774.029419 813.864197,774.029419 
	C812.143555,782.261047 810.223938,790.334656 808.866821,798.501709 
	C808.348694,801.620056 808.067017,805.669739 812.247070,806.908752 
	C816.617798,808.204285 819.786011,805.936646 821.299011,801.879578 
	C822.626526,798.319580 823.402405,794.553955 824.533264,790.475586 
M832.647766,733.753479 
	C827.668701,731.654114 824.256714,734.143433 822.662598,738.315369 
	C820.195679,744.771606 818.607605,751.563660 816.549988,758.541992 
	C821.973022,758.541992 826.528137,758.541992 831.339233,758.541992 
	C832.553223,752.786377 834.015259,747.309265 834.741150,741.736267 
	C835.055481,739.323181 833.851501,736.712280 832.647766,733.753479 
z"/>
<path fill="#040404" opacity="1.000000" stroke="none" 
	d="
M886.289795,757.436401 
	C884.016846,768.282166 881.827881,778.713867 879.646606,789.147034 
	C879.305908,790.776550 878.942749,792.404480 878.687927,794.048340 
	C877.169495,803.843750 879.084961,805.776917 889.588562,804.215576 
	C888.312500,810.234253 887.168213,816.034424 885.772705,821.773499 
	C885.566284,822.622742 884.176758,823.775269 883.328064,823.780823 
	C878.052246,823.815186 872.608276,824.325073 867.538269,823.218994 
	C860.644165,821.714966 858.410889,815.666748 858.230957,809.400940 
	C858.070068,803.799316 858.589172,798.067932 859.666016,792.561523 
	C863.053650,775.238770 866.847839,757.995605 870.475952,740.719788 
	C870.844238,738.966187 871.154358,737.200378 871.576050,734.998962 
	C868.144226,734.998962 865.187500,734.998962 861.891846,734.998962 
	C862.934326,730.213989 864.085205,725.881470 864.766968,721.476379 
	C865.240356,718.417969 866.476868,716.907715 869.624023,717.559021 
	C874.582581,718.585144 876.227417,716.196533 876.893799,711.577026 
	C877.840942,705.010803 879.499756,698.547119 880.900085,691.820801 
	C887.303833,691.820801 893.505554,691.820801 900.148987,691.820801 
	C898.391235,700.394470 896.701111,708.638367 894.891785,717.463257 
	C899.447510,717.463257 903.523621,717.463257 908.109192,717.463257 
	C906.793884,723.536011 905.607666,729.013000 904.339539,734.867920 
	C899.969788,734.867920 895.706299,734.867920 891.078918,734.867920 
	C889.465881,742.467163 887.921082,749.744934 886.289795,757.436401 
z"/>
<path fill="#040404" opacity="1.000000" stroke="none" 
	d="
M669.568604,786.522461 
	C679.547791,769.444458 689.331970,752.675049 699.549011,735.163879 
	C691.562561,735.163879 684.497498,735.163879 677.008057,735.163879 
	C678.357422,729.013367 679.590942,723.390503 680.838135,717.705566 
	C695.206665,717.705566 709.160645,717.705566 724.414185,717.705566 
	C722.221802,724.526794 721.148499,731.428284 717.959778,737.151062 
	C706.126221,758.388855 693.594421,779.237671 681.330688,800.236023 
	C680.517944,801.627502 679.754150,803.047668 678.642090,805.036621 
	C687.670166,805.036621 696.072571,805.036621 705.164978,805.036621 
	C703.914734,811.179321 702.771545,816.796143 701.570557,822.697266 
	C685.904785,822.697266 670.314941,822.697266 654.752380,822.697266 
	C654.907227,811.241699 660.127258,801.704163 666.091248,792.436340 
	C667.261963,790.617188 668.283386,788.701965 669.568604,786.522461 
z"/>
<path fill="#050505" opacity="1.000000" stroke="none" 
	d="
M653.977356,725.973511 
	C658.656067,721.462402 663.553650,717.313416 670.322449,716.376831 
	C671.586426,716.201843 672.871826,716.181641 674.579651,716.058960 
	C673.099365,723.298828 671.710938,730.089905 670.293579,737.022217 
	C669.065979,737.022217 668.098816,737.036438 667.132263,737.020020 
	C655.160034,736.816040 649.846130,741.015442 647.338562,752.875793 
	C642.446289,776.015076 637.618408,799.167908 632.692810,822.654053 
	C626.466431,822.654053 620.226929,822.654053 613.394348,822.654053 
	C615.230652,813.956421 617.057922,805.264282 618.901672,796.575562 
	C624.156860,771.811096 629.536499,747.071777 634.560120,722.260498 
	C635.381226,718.205261 636.987732,717.182129 640.790955,717.466064 
	C645.250549,717.798828 649.754028,717.543884 654.859192,717.543884 
	C654.310791,720.451416 653.832581,722.986877 653.449585,725.665894 
	C653.565979,726.115723 653.587280,726.422119 653.608521,726.728455 
	C653.731506,726.476807 653.854431,726.225159 653.977356,725.973511 
z"/>
<path fill="#000000" opacity="1.000000" stroke="none" 
	d="
M943.253418,766.671387 
	C941.428101,763.782532 939.821106,761.195984 938.510071,759.085754 
	C948.906921,744.836121 951.621460,726.135803 965.683838,713.904175 
	C967.282349,738.821106 964.519714,762.948914 957.486755,787.325317 
	C952.578735,780.198242 948.025208,773.585999 943.253418,766.671387 
z"/>
<path fill="#000000" opacity="1.000000" stroke="none" 
	d="
M431.477692,342.820923 
	C424.980133,337.486084 422.228394,331.261292 425.000580,323.245331 
	C427.532379,315.924316 436.000732,311.313934 444.460541,313.051300 
	C451.226013,314.440704 457.616699,322.438995 457.062012,329.948944 
	C456.514160,337.366638 450.571869,344.433502 443.064453,344.847168 
	C439.363007,345.051086 435.573364,343.654236 431.477692,342.820923 
z"/>
<path fill="#000000" opacity="1.000000" stroke="none" 
	d="
M320.511108,312.813354 
	C332.707428,314.527649 338.536438,320.550507 337.998108,330.330963 
	C337.572937,338.055145 329.200470,346.451202 321.507416,345.764191 
	C311.907867,344.906891 305.136810,338.278748 305.009460,329.322357 
	C304.883606,320.473389 311.520447,313.333557 320.511108,312.813354 
z"/>
<path fill="#000000" opacity="1.000000" stroke="none" 
	d="
M549.000732,634.998291 
	C542.409729,634.998291 536.318604,634.998291 529.585938,634.998291 
	C532.270508,629.535095 534.542603,624.609131 537.145691,619.864746 
	C537.678101,618.894348 539.445984,618.095642 540.654602,618.081299 
	C551.929199,617.947388 563.205994,618.002014 574.739197,618.002014 
	C574.739197,623.666504 574.739197,629.062805 574.739197,634.998291 
	C566.334595,634.998291 557.917603,634.998291 549.000732,634.998291 
z"/>
<path fill="#000000" opacity="1.000000" stroke="none" 
	d="
M943.008606,633.089233 
	C942.742371,633.991760 942.440552,634.931763 942.134033,634.933350 
	C927.899963,635.005615 913.665527,634.996155 899.217957,634.996155 
	C899.217957,629.250671 899.217957,623.861450 899.217957,618.235962 
	C911.377991,618.235962 923.433350,618.235962 935.543640,618.235962 
	C937.993591,623.003418 940.482239,627.846191 943.008606,633.089233 
z"/>
<path fill="#000000" opacity="1.000000" stroke="none" 
	d="
M460.984344,243.998199 
	C449.856506,243.998199 439.226288,243.998199 427.901031,243.998199 
	C432.075562,239.093201 435.444794,234.855362 442.645447,235.827698 
	C448.857574,236.666519 455.317963,236.471954 461.585327,235.868988 
	C467.798309,235.271255 471.852966,237.172241 474.058533,243.998199 
	C469.800568,243.998199 465.641266,243.998199 460.984344,243.998199 
z"/>
<path fill="#000000" opacity="1.000000" stroke="none" 
	d="
M289.283081,240.224915 
	C290.624908,236.900787 292.669342,235.819855 295.958557,235.928787 
	C303.104462,236.165436 310.327728,236.596710 317.399384,235.834763 
	C324.493866,235.070358 328.921387,238.114029 332.722382,243.707886 
	C317.585846,243.707886 302.566681,243.707886 287.286011,243.707886 
	C287.836182,242.679886 288.419250,241.590408 289.283081,240.224915 
z"/>
<path fill="#FFFFFF" opacity="1.000000" stroke="none" 
	d="
M737.000000,337.241699 
	C738.232849,321.378693 750.858398,307.388214 766.442993,304.066711 
	C781.229614,300.915253 794.308472,304.567627 804.396484,316.035553 
	C812.492371,325.238892 815.270935,336.109497 813.276855,348.493225 
	C811.377502,360.288452 805.006409,368.593445 795.480225,374.979095 
	C784.470093,382.359528 763.544922,381.611816 752.724976,373.420044 
	C740.638977,364.269775 736.017456,352.352203 737.000000,337.241699 
M774.611267,321.000000 
	C763.680542,321.472321 754.282593,330.747437 754.837036,341.831818 
	C755.519775,355.481232 766.792847,365.187897 780.055359,361.923859 
	C790.555359,359.339722 797.322205,351.156738 795.902649,339.020874 
	C794.809204,329.672882 786.211914,320.970673 774.611267,321.000000 
z"/>
<path fill="#FFFFFF" opacity="1.000000" stroke="none" 
	d="
M316.567169,583.993530 
	C309.515900,581.390259 304.682007,577.163025 303.348450,569.813354 
	C301.720490,560.841064 307.742615,551.856140 316.872833,550.137024 
	C323.720123,548.847900 330.574066,550.273438 334.692047,556.521790 
	C338.831482,562.802734 339.443268,569.591614 335.145721,576.499695 
	C332.232208,581.183044 328.211243,583.460815 322.975952,583.968811 
	C321.000763,584.160522 318.991394,583.999451 316.567169,583.993530 
M323.050507,574.979736 
	C327.228088,573.400330 329.401001,569.939636 328.754974,565.955688 
	C328.226532,562.697021 326.438812,559.195129 321.889618,558.963440 
	C317.150208,558.721985 313.179810,561.690063 313.000061,565.927246 
	C312.736389,572.141968 315.451202,574.808533 323.050507,574.979736 
z"/>
<path fill="#FFFFFF" opacity="1.000000" stroke="none" 
	d="
M426.303223,965.088501 
	C424.593018,962.360046 422.843170,959.845581 422.134674,957.065796 
	C421.496613,954.562439 421.944366,951.766785 422.011871,949.102539 
	C422.143585,943.903748 425.097748,941.003662 430.237640,941.003418 
	C527.045288,940.998718 623.852905,940.998657 720.660583,941.003174 
	C726.187195,941.003479 727.978760,942.805908 727.997925,948.314819 
	C728.008972,951.480591 728.010437,954.646545 727.997681,957.812317 
	C727.976990,962.916748 725.060364,965.842957 719.847717,965.996460 
	C719.015320,966.020996 718.181641,966.000000 717.348511,966.000000 
	C622.373718,966.000000 527.398865,966.004761 432.424072,965.966125 
	C430.521606,965.965393 428.619354,965.458069 426.303223,965.088501 
M651.500000,950.000000 
	C578.398499,950.000000 505.296997,950.000000 432.284607,950.000000 
	C432.284607,952.972107 432.284607,955.379333 432.284607,957.721558 
	C528.314209,957.721558 624.058960,957.721558 719.715454,957.721558 
	C719.715454,955.027222 719.715454,952.625244 719.715454,950.353455 
	C719.286133,950.168579 719.141418,950.051697 718.996643,950.051575 
	C696.831116,950.028870 674.665527,950.014648 651.500000,950.000000 
z"/>
<path fill="#FEFEFE" opacity="1.000000" stroke="none" 
	d="
M495.950104,724.945312 
	C495.894989,725.302063 495.717621,725.528381 495.540283,725.754761 
	C495.445801,725.477356 495.351349,725.200012 495.418640,724.739746 
	C495.580444,724.556824 495.827850,724.814941 495.950104,724.945312 
z"/>
<path fill="#F5F5F5" opacity="1.000000" stroke="none" 
	d="
M422.573425,777.518555 
	C425.269653,775.636963 427.705902,774.005005 430.142120,772.373108 
	C430.515503,772.594788 430.888885,772.816467 431.262299,773.038208 
	C429.237000,782.136230 427.444397,791.295471 425.071747,800.302002 
	C424.124268,803.898621 418.130615,806.548096 415.176086,805.144531 
	C411.332306,803.318298 411.930939,799.694336 412.556213,796.450256 
	C413.937592,789.283142 416.897705,782.864868 422.573425,777.518555 
z"/>
<path fill="#F5F5F5" opacity="1.000000" stroke="none" 
	d="
M598.585083,735.875916 
	C597.749451,743.275085 596.814453,750.296936 595.644836,757.279602 
	C595.536133,757.928955 593.958069,758.733215 593.031372,758.774597 
	C589.238098,758.943970 585.432861,758.845276 580.535278,758.845276 
	C582.876221,751.284485 584.441162,744.121399 587.333313,737.541687 
	C589.743774,732.057800 594.308960,731.681274 598.585083,735.875916 
z"/>
<path fill="#F3F3F3" opacity="1.000000" stroke="none" 
	d="
M832.992493,733.972412 
	C833.851501,736.712280 835.055481,739.323181 834.741150,741.736267 
	C834.015259,747.309265 832.553223,752.786377 831.339233,758.541992 
	C826.528137,758.541992 821.973022,758.541992 816.549988,758.541992 
	C818.607605,751.563660 820.195679,744.771606 822.662598,738.315369 
	C824.256714,734.143433 827.668701,731.654114 832.992493,733.972412 
z"/>
<path fill="#FEFEFE" opacity="1.000000" stroke="none" 
	d="
M654.000977,726.002258 
	C653.854431,726.225159 653.731506,726.476807 653.608521,726.728455 
	C653.587280,726.422119 653.565979,726.115723 653.805908,725.950745 
	C654.067078,726.092102 654.024658,726.031006 654.000977,726.002258 
z"/>
<path fill="#000000" opacity="1.000000" stroke="none" 
	d="
M775.052124,321.000000 
	C786.211914,320.970673 794.809204,329.672882 795.902649,339.020874 
	C797.322205,351.156738 790.555359,359.339722 780.055359,361.923859 
	C766.792847,365.187897 755.519775,355.481232 754.837036,341.831818 
	C754.282593,330.747437 763.680542,321.472321 775.052124,321.000000 
z"/>
<path fill="#000000" opacity="1.000000" stroke="none" 
	d="
M322.642944,574.989075 
	C315.451202,574.808533 312.736389,572.141968 313.000061,565.927246 
	C313.179810,561.690063 317.150208,558.721985 321.889618,558.963440 
	C326.438812,559.195129 328.226532,562.697021 328.754974,565.955688 
	C329.401001,569.939636 327.228088,573.400330 322.642944,574.989075 
z"/>
<path fill="#000000" opacity="1.000000" stroke="none" 
	d="
M652.000000,950.000000 
	C674.665527,950.014648 696.831116,950.028870 718.996643,950.051575 
	C719.141418,950.051697 719.286133,950.168579 719.715454,950.353455 
	C719.715454,952.625244 719.715454,955.027222 719.715454,957.721558 
	C624.058960,957.721558 528.314209,957.721558 432.284607,957.721558 
	C432.284607,955.379333 432.284607,952.972107 432.284607,950.000000 
	C505.296997,950.000000 578.398499,950.000000 652.000000,950.000000 
z"/>
</svg>